<?xml version="1.0" standalone="no"?>
<!DOCTYPE svg PUBLIC "-//W3C//DTD SVG 20010904//EN"
 "http://www.w3.org/TR/2001/REC-SVG-20010904/DTD/svg10.dtd">
<svg version="1.0" xmlns="http://www.w3.org/2000/svg"
 width="128.000000pt" height="128.000000pt" viewBox="0 0 128.000000 128.000000"
 preserveAspectRatio="xMidYMid meet">
<metadata>
Created by potrace 1.14, written by Peter Selinger 2001-2017
</metadata>
<g transform="translate(0.000000,128.000000) scale(0.100000,-0.100000)"
fill="#000000" stroke="none">
<path d="M0 640 l0 -640 640 0 640 0 0 640 0 640 -640 0 -640 0 0 -640z m433
61 c5 13 13 34 18 47 18 46 91 21 117 -40 16 -39 6 -35 -14 5 -20 39 -31 47
-66 47 -23 0 -29 -6 -37 -37 -15 -54 -14 -61 14 -79 31 -20 73 -11 85 19 5 12
9 16 9 8 1 -19 -28 -51 -46 -51 -18 0 -16 -8 10 -44 34 -45 42 -60 29 -52 -7
4 -26 27 -42 52 -25 35 -37 44 -60 44 -27 0 -31 -5 -45 -55 -9 -30 -20 -55
-24 -55 -8 0 -34 100 -27 107 2 2 9 -18 16 -44 l12 -48 20 64 c10 34 17 69 15
75 -3 7 -24 28 -48 47 l-42 33 6 -31 c15 -77 16 -86 3 -48 -7 22 -17 56 -21
74 l-7 34 58 -48 c58 -47 58 -47 67 -24z m304 -123 c-2 -35 -3 -7 -3 62 0 69
1 97 3 63 2 -35 2 -91 0 -125z m371 -5 l-3 -68 -53 73 c-30 41 -52 76 -49 78
2 2 24 -24 48 -58 l44 -63 5 115 c3 84 5 98 8 53 1 -34 2 -93 0 -130z m-131
129 c17 -23 20 -35 13 -63 l-8 -34 -1 36 c-1 19 -8 44 -16 55 -13 18 -19 34
-12 34 2 0 13 -13 24 -28z m-220 -54 c-3 -8 -6 -5 -6 6 -1 11 2 17 5 13 3 -3
4 -12 1 -19z"/>
<path d="M430 640 c0 -5 7 -10 16 -10 8 0 12 5 9 10 -3 6 -10 10 -16 10 -5 0
-9 -4 -9 -10z"/>
</g>
</svg>
