<svg width="205" height="82" viewBox="0 0 205 82" fill="none" xmlns="http://www.w3.org/2000/svg">
<path d="M9.08968 15.799V40.5549H31.7403V41.926H9.08968V66.682H34.0516V68.0531H7.54883V14.4279H34.0516V15.799H9.08968Z" fill="#152328"/>
<path d="M69.0911 44.2314H57.4262M33.5537 14.947L47.1757 68.5599C47.3103 69.0899 48.0661 69.1049 48.2223 68.5808L64.2081 14.947H75.8731C84.1085 14.9697 90.3197 29.043 83.4688 39.5787C81.724 41.9883 78.3357 45.0659 69.0911 44.2314L33.5537 14.947ZM69.0911 44.2314C79.1283 57.9156 77.772 56.5472 87.2667 68.5894L69.0911 44.2314Z" stroke="#152328" stroke-width="1.3487"/>
<path d="M104.646 68.5937C101.156 68.5937 98.109 67.9757 95.5047 66.7398C92.9525 65.5039 90.9732 63.8818 89.5669 61.8734C88.1607 59.8135 87.3273 57.5992 87.0669 55.2303H88.6295C88.8899 57.0327 89.541 58.8351 90.5826 60.6375C91.6765 62.4398 93.3692 63.9847 95.6609 65.2722C98.0048 66.5596 101 67.2033 104.646 67.2033C107.563 67.2033 110.141 66.6626 112.38 65.5811C114.62 64.4482 116.339 62.9548 117.537 61.1009C118.735 59.247 119.334 57.1872 119.334 54.9213C119.334 51.986 118.657 49.6687 117.303 47.9693C115.948 46.2184 114.255 44.931 112.224 44.107C110.245 43.2831 107.563 42.4334 104.177 41.5579C100.635 40.631 97.7964 39.7041 95.6609 38.7771C93.5255 37.8502 91.7025 36.434 90.192 34.5286C88.7336 32.5718 88.0044 29.9454 88.0044 26.6496C88.0044 24.2808 88.6554 22.0664 89.9577 20.0066C91.3119 17.8952 93.2129 16.2216 95.6609 14.9856C98.1611 13.7497 101 13.1318 104.177 13.1318C107.406 13.1318 110.193 13.6982 112.537 14.8312C114.88 15.9641 116.704 17.406 118.006 19.1569C119.36 20.8563 120.245 22.6586 120.662 24.564H119.099C118.735 23.0706 117.979 21.5515 116.833 20.0066C115.687 18.4617 114.047 17.1743 111.912 16.1443C109.777 15.0629 107.197 14.5222 104.177 14.5222C101.521 14.5222 99.0726 15.0371 96.8329 16.0671C94.6453 17.0455 92.8744 18.4617 91.5202 20.3155C90.218 22.1179 89.5669 24.2293 89.5669 26.6496C89.5669 29.6365 90.2441 32.031 91.5983 33.8334C93.0046 35.5843 94.7234 36.8975 96.7548 37.7729C98.786 38.5969 101.495 39.4466 104.88 40.322C108.422 41.249 111.234 42.1759 113.318 43.1028C115.454 43.9783 117.25 45.3687 118.708 47.2741C120.167 49.1279 120.896 51.677 120.896 54.9213C120.896 57.1872 120.271 59.3758 119.021 61.4872C117.823 63.5985 116 65.3237 113.552 66.6626C111.105 67.95 108.135 68.5937 104.646 68.5937Z" fill="#152328"/>
<path d="M125.197 14.4279V68.0531H123.655V14.4279H125.197Z" fill="#152328"/>
<path d="M170.277 21.6523L203.916 68.053V14.947" stroke="#152328" stroke-width="1.3487"/>
<path d="M153.041 69.1988C148.059 69.1988 143.591 68.0562 139.636 65.771C135.733 63.4349 132.676 60.1853 130.468 56.021C128.259 51.8569 127.155 47.1342 127.155 41.853C127.155 36.5717 128.259 31.849 130.468 27.6849C132.676 23.5208 135.733 20.2962 139.636 18.0111C143.591 15.6751 148.059 14.5072 153.041 14.5072C158.024 14.5072 162.466 15.6751 166.37 18.0111C170.325 20.2962 173.406 23.5208 175.615 27.6849C177.823 31.849 178.928 36.5717 178.928 41.853C178.928 47.1342 177.823 51.8569 175.615 56.021C173.406 60.1853 170.325 63.4349 166.37 65.771C162.466 68.0562 158.024 69.1988 153.041 69.1988ZM153.041 67.8277C157.561 67.8277 161.67 66.7865 165.369 64.7046C169.066 62.5718 171.968 59.5501 174.074 55.6401C176.231 51.6792 177.31 47.0835 177.31 41.853C177.31 36.6225 176.231 32.0521 174.074 28.142C171.968 24.181 169.066 21.1595 165.369 19.0775C161.67 16.9447 157.561 15.8783 153.041 15.8783C148.521 15.8783 144.413 16.9447 140.715 19.0775C137.016 21.1595 134.089 24.181 131.932 28.142C129.826 32.0521 128.773 36.6225 128.773 41.853C128.773 47.0835 129.826 51.6792 131.932 55.6401C134.089 59.5501 137.016 62.5718 140.715 64.7046C144.413 66.7865 148.521 67.8277 153.041 67.8277Z" fill="#152328"/>
</svg>
