<svg width="376" height="151" viewBox="0 0 376 151" fill="none" xmlns="http://www.w3.org/2000/svg">
<path d="M14.91 27.588V73.738H56.658V76.294H14.91V122.444H60.918V125H12.07V25.032H60.918V27.588H14.91Z" fill="black"/>
<path d="M60 26L85.107 125.945C85.3551 126.933 86.7482 126.961 87.0361 125.984L116.5 26H138C153.179 26.0423 164.627 52.2777 152 71.9184C148.784 76.4102 142.539 82.1476 125.5 80.5918M125.5 80.5918C144 106.102 141.5 103.551 159 126M125.5 80.5918H104" stroke="black" stroke-width="2.5"/>
<path d="M191.032 126.008C184.6 126.008 178.984 124.856 174.184 122.552C169.48 120.248 165.832 117.224 163.24 113.48C160.648 109.64 159.112 105.512 158.632 101.096H161.512C161.992 104.456 163.192 107.816 165.112 111.176C167.128 114.536 170.248 117.416 174.472 119.816C178.792 122.216 184.312 123.416 191.032 123.416C196.408 123.416 201.16 122.408 205.288 120.392C209.416 118.28 212.584 115.496 214.792 112.04C217 108.584 218.104 104.744 218.104 100.52C218.104 95.048 216.856 90.728 214.36 87.56C211.864 84.296 208.744 81.896 205 80.36C201.352 78.824 196.408 77.24 190.168 75.608C183.64 73.88 178.408 72.152 174.472 70.424C170.536 68.696 167.176 66.056 164.392 62.504C161.704 58.856 160.36 53.96 160.36 47.816C160.36 43.4 161.56 39.272 163.96 35.432C166.456 31.496 169.96 28.376 174.472 26.072C179.08 23.768 184.312 22.616 190.168 22.616C196.12 22.616 201.256 23.672 205.576 25.784C209.896 27.896 213.256 30.584 215.656 33.848C218.152 37.016 219.784 40.376 220.552 43.928H217.672C217 41.144 215.608 38.312 213.496 35.432C211.384 32.552 208.36 30.152 204.424 28.232C200.488 26.216 195.736 25.208 190.168 25.208C185.272 25.208 180.76 26.168 176.632 28.088C172.6 29.912 169.336 32.552 166.84 36.008C164.44 39.368 163.24 43.304 163.24 47.816C163.24 53.384 164.488 57.848 166.984 61.208C169.576 64.472 172.744 66.92 176.488 68.552C180.232 70.088 185.224 71.672 191.464 73.304C197.992 75.032 203.176 76.76 207.016 78.488C210.952 80.12 214.264 82.712 216.952 86.264C219.64 89.72 220.984 94.472 220.984 100.52C220.984 104.744 219.832 108.824 217.528 112.76C215.32 116.696 211.96 119.912 207.448 122.408C202.936 124.808 197.464 126.008 191.032 126.008Z" fill="black"/>
<path d="M228.91 25.032V125H226.07V25.032H228.91Z" fill="black"/>
<path d="M312 38.5L374 125V26" stroke="black" stroke-width="2.5"/>
<path d="M280.232 127.136C271.049 127.136 262.813 125.006 255.524 120.746C248.329 116.391 242.697 110.333 238.626 102.57C234.555 94.8073 232.52 86.0033 232.52 76.158C232.52 66.3127 234.555 57.5087 238.626 49.746C242.697 41.9833 248.329 35.972 255.524 31.712C262.813 27.3573 271.049 25.18 280.232 25.18C289.415 25.18 297.603 27.3573 304.798 31.712C312.087 35.972 317.767 41.9833 321.838 49.746C325.909 57.5087 327.944 66.3127 327.944 76.158C327.944 86.0033 325.909 94.8073 321.838 102.57C317.767 110.333 312.087 116.391 304.798 120.746C297.603 125.006 289.415 127.136 280.232 127.136ZM280.232 124.58C288.563 124.58 296.136 122.639 302.952 118.758C309.768 114.782 315.117 109.149 318.998 101.86C322.974 94.476 324.962 85.9087 324.962 76.158C324.962 66.4073 322.974 57.8873 318.998 50.598C315.117 43.214 309.768 37.5813 302.952 33.7C296.136 29.724 288.563 27.736 280.232 27.736C271.901 27.736 264.328 29.724 257.512 33.7C250.696 37.5813 245.3 43.214 241.324 50.598C237.443 57.8873 235.502 66.4073 235.502 76.158C235.502 85.9087 237.443 94.476 241.324 101.86C245.3 109.149 250.696 114.782 257.512 118.758C264.328 122.639 271.901 124.58 280.232 124.58Z" fill="black"/>
</svg>
