<svg width="47" height="51" viewBox="0 0 47 51" fill="none" xmlns="http://www.w3.org/2000/svg">
<path d="M17.83 0.068058C13.9176 0.615604 10.6224 2.31797 8.13353 5.06565C5.26638 8.24141 3.9921 11.686 3.9921 16.2853V17.8583L3.1658 17.9081C1.81188 17.9977 0.905938 18.6049 0.338482 19.8294L0.0597322 20.4268L0.0298661 23.9211C0 27.3258 0.00995536 27.4154 0.209063 27.6743C0.637143 28.2218 1.50326 28.1023 1.82183 27.4453C1.98112 27.1367 2.00103 26.7484 2.00103 24.0306C2.00103 21.1535 2.01098 20.9444 2.20013 20.5761C2.58839 19.8195 1.07518 19.8792 19.7614 19.8991C36.3669 19.929 36.5262 19.929 36.7452 20.1281C36.8746 20.2376 37.0538 20.5064 37.1534 20.7254C37.3226 21.0938 37.3426 21.5019 37.3426 26.5593V31.9949L34.336 33.6176C30.6924 35.5788 30.563 35.6684 30.2643 36.2757C30.0652 36.6839 30.0353 36.883 30.0453 37.8885C30.0652 39.8696 30.6625 42.1593 31.658 44.1603C31.9368 44.7079 32.1658 45.1857 32.1658 45.2156C32.1658 45.3052 3.01647 45.2654 2.76759 45.1758C2.62821 45.126 2.41915 44.9269 2.28973 44.7477L2.0508 44.4192L2.00103 40.0289C1.95125 35.4096 1.96121 35.5091 1.50326 35.1408C1.42362 35.0711 1.17473 35.0114 0.945759 35.0114C0.637143 35.0114 0.487813 35.0711 0.268795 35.2901L0 35.5788L0.0298661 40.1981L0.0597322 44.8174L0.358393 45.3948C0.746652 46.1713 1.55304 46.908 2.22005 47.1071C2.66804 47.2365 4.6392 47.2565 18.1287 47.2565H33.5097L34.117 47.9832C35.451 49.5761 37.3923 50.9399 38.348 50.9399C39.2042 50.9399 41.1853 49.5761 42.4496 48.1027C44.1719 46.1116 45.5358 43.5033 46.2227 40.895C46.4716 39.9393 46.5313 39.4813 46.5712 38.2269C46.6209 36.8133 46.611 36.6938 46.4019 36.2657C46.2725 35.977 46.0236 35.6983 45.7747 35.5191C45.5458 35.3698 44.0027 34.5136 42.3501 33.6176L39.3436 32.0048L39.3137 26.2606L39.2838 20.5164L38.9055 19.7498C38.2883 18.5054 37.3127 17.8881 35.9488 17.8881H35.3813L35.3117 15.9668C35.242 13.9558 35.0926 12.7512 34.7542 11.5167C33.1513 5.79239 28.4225 1.40208 22.6385 0.267166C21.414 0.0282364 18.8853 -0.0812721 17.83 0.068058ZM22.31 2.24828C23.6241 2.50712 24.3608 2.76596 25.7446 3.45288C29.657 5.39418 32.4146 9.13739 33.1215 13.4978C33.2011 13.9956 33.2609 15.0907 33.2609 16.1161V17.8881H31.9368H30.6028L30.543 16.1161C30.4634 13.677 30.1946 12.4227 29.3584 10.7701C28.8208 9.69489 28.1836 8.82877 27.2876 7.93279C24.0024 4.63757 19.0546 3.82123 14.8932 5.89194C13.599 6.52909 12.7528 7.15627 11.7871 8.16177C10.5029 9.51569 9.57705 11.1683 9.10915 12.9602C8.88018 13.8264 8.84036 14.2146 8.80054 15.917L8.75076 17.8881H7.34705H5.9533L6.01304 15.8672C6.05286 14.3739 6.12255 13.5974 6.28183 12.8607C7.22759 8.41065 10.2739 4.74708 14.4651 3.01484C15.4806 2.59672 16.9838 2.18855 18.0292 2.05913C19.0844 1.92971 21.195 2.02926 22.31 2.24828ZM21.8321 7.02686C25.0178 7.85315 27.5067 10.3918 28.2832 13.6372C28.4425 14.2843 28.4823 14.802 28.4823 16.1659V17.8881H19.6121H10.7418L10.7916 16.0663C10.8414 14.1449 10.9509 13.5078 11.4288 12.3331C12.5637 9.48583 15.0425 7.47485 18.1586 6.87753C19.1043 6.69833 20.8266 6.76801 21.8321 7.02686ZM41.5039 35.4394L44.61 37.1219V37.8984C44.61 40.1384 43.6443 42.9159 42.0116 45.3649C41.2749 46.4799 39.5029 48.2918 38.8159 48.6502L38.3381 48.8991L37.8702 48.6502C37.1932 48.3018 35.3117 46.3804 34.6446 45.3649C33.0219 42.906 32.0164 39.9492 32.0861 37.9084L32.116 37.092L35.2021 35.4195C36.9045 34.4937 38.3182 33.747 38.348 33.757C38.3779 33.757 39.8015 34.5236 41.5039 35.4394Z" fill="#C9E3ED"/>
<path d="M40.8667 38.5455C40.7074 38.6152 39.911 39.3519 39.0947 40.1782L37.6014 41.6715L37.0339 41.1339C36.7253 40.8352 36.3569 40.5664 36.2076 40.5266C35.4709 40.3474 34.8139 41.0045 34.9931 41.7412C35.0627 42 36.7452 43.7024 37.1832 43.9413C37.2927 44.011 37.5416 44.0608 37.7308 44.0707C38.1091 44.0707 38.6168 43.6128 40.8667 41.2434C42.1311 39.9094 42.1709 39.8496 42.1709 39.4315C42.1709 38.7247 41.5039 38.2667 40.8667 38.5455Z" fill="#C9E3ED"/>
<path d="M11.3391 23.722C9.05935 24.2695 7.47645 26.2705 7.4665 28.5901C7.4665 29.0282 7.51627 29.6056 7.57601 29.8744C7.72534 30.5713 8.30275 31.6166 8.82043 32.1641L9.25846 32.6121L8.57154 33.07C6.61034 34.3742 5.27632 36.7237 5.25641 38.8939C5.25641 39.3618 5.30619 39.77 5.40574 39.999C5.64467 40.5465 6.18226 41.0941 6.7298 41.343L7.22757 41.5819H12.5636H17.8898L18.4074 41.323C18.9948 41.0343 19.3631 40.6361 19.6519 39.999C19.8111 39.6306 19.841 39.4116 19.7912 38.655C19.6718 36.4748 18.5169 34.4837 16.6155 33.1497L15.839 32.6021L16.3268 32.0646C17.173 31.1387 17.6309 29.964 17.6309 28.6897C17.6309 25.3845 14.5348 22.9454 11.3391 23.722ZM13.8877 25.8922C16.1774 27.0072 16.1973 30.2527 13.9375 31.4075C13.38 31.6962 13.1809 31.746 12.5736 31.746C10.8314 31.746 9.46752 30.4219 9.46752 28.7295C9.46752 27.8634 9.68654 27.2561 10.2341 26.6488C11.2097 25.5637 12.6234 25.275 13.8877 25.8922ZM13.6986 33.9561C15.8688 34.5335 17.8201 36.8431 17.83 38.8342C17.83 39.6306 18.1187 39.5908 12.5836 39.5908C9.37793 39.5908 7.59592 39.551 7.4665 39.4913C7.08819 39.2822 7.27735 37.8884 7.82489 36.7934C8.48194 35.5091 10.0648 34.2448 11.4188 33.9262C12.0061 33.7868 13.1411 33.8067 13.6986 33.9561Z" fill="#C9E3ED"/>
<path d="M21.6529 26.6489C21.0556 26.8878 20.9261 27.7639 21.404 28.2517L21.6927 28.5404H26.4314C31.5087 28.5404 31.5585 28.5404 31.8273 28.0327C32.096 27.515 31.9069 26.8878 31.4191 26.6688C31.1105 26.5294 22.0013 26.5095 21.6529 26.6489Z" fill="#C9E3ED"/>
<path d="M0.318565 30.7902C0.0597255 31.0093 0.00994873 31.1188 0.00994873 31.4871C0.00994873 32.4727 1.15482 32.8709 1.74218 32.0944C2.0508 31.6763 2.01098 31.1586 1.62272 30.8201C1.20459 30.4418 0.73669 30.4319 0.318565 30.7902Z" fill="#C9E3ED"/>
<path d="M21.404 32.2139C21.0257 32.6022 21.0058 33.1796 21.3542 33.5877L21.5932 33.8665H25.1472H28.7013L28.9402 33.5877C29.2886 33.1796 29.2687 32.6022 28.8904 32.2139L28.6017 31.9252H25.1472H21.6927L21.404 32.2139Z" fill="#C9E3ED"/>
</svg>
